<svg xmlns="http://www.w3.org/2000/svg" width="250" height="250"><path fill="#EC9145" d="m126.938.875 2.802-.012C142.823.882 142.823.882 148 2l1 2 3.75-.062c5.635.03 8.542 1.228 13.457 4.152 2.507 1.272 5.028 1.498 7.793 1.91 2.031.934 4.035 1.932 6 3l2.063 1c2.379 1.228 4.642 2.623 6.937 4 1.326.681 2.657 1.353 4 2v2l2.375.375C198 23 198 23 200 25c2.283 1.768 4.595 3.397 7 5v2l2.438.813L212 34l1 3 2 .875L217 39l1 5c1.9 1.242 1.9 1.242 4 2 2.222 2.222 2.926 4.085 4 7h2v3h2l1.313 2.688c1.598 3.259 1.598 3.259 3.375 6C236 67 236 67 236 70h2a101 101 0 0 1 3 6l-1 2 2 1c2.228 4.467 3.253 9.092 4 14 .941 3.802.941 3.802 3 7v5l.501 2.124c.678 3.91.57 7.69.483 11.65l-.05 2.55q-.056 2.667-.121 5.331c-.063 2.704-.104 5.407-.145 8.11l-.121 5.196-.029 2.428c-.158 5.258-1.267 8.865-3.518 13.611-.168 2.667-.168 2.667 0 5-1 3-1 3-2 5h-2l.688 1.688c.442 3.272-.786 4.705-2.688 7.312l-2 1c-.8 1.981-.8 1.981-1.437 4.313-1.09 3.462-2.18 5.907-4.563 8.687-1.71 2.697-2.987 4.962-4 8h-2v3h-3l-.312 1.938L222 204l-3 1a88 88 0 0 0-2 4c-1.937 2.75-1.937 2.75-4 5h-3l-.312 1.938L209 218l-3 1a101 101 0 0 0-3 3c-2.923 2.548-5.107 4.423-9 5v2c-3.711 3.08-7.745 5.127-12.437 6.188L178 236l-1 2-3 1-2-1-1 2c-1 1-1 1-3.562 1.063L165 241l-1 3-2.25-.125c-2.838.129-4.338.696-6.75 2.125l-1-1-2.152.965c-2.92 1.061-5.32 1.396-8.41 1.597-3.705.228-3.705.228-7.325.961-3.128.706-6.163.57-9.363.54l-3.828-.028L120 249v-2h-2l-1 2v-2l-2.5 1.188c-4.186.971-5.796.207-9.598-1.45-2.367-.919-4.388-.974-6.902-.738v-2l-3.375.063C91 244 91 244 89 243v-2l-3-.25c-3.774-.533-6.673-1.912-10.008-3.703-1.923-1.01-3.855-1.854-5.867-2.672C67 233 67 233 65 231l-2.25-.875c-4.784-1.957-8.594-4.764-12.062-8.562-1.725-1.715-1.725-1.715-4.313-3.063C44 217 44 217 43 214l-1.812-.875c-2.884-1.483-4.206-3.586-6.188-6.125l-2.25-1.625L31 204v-3l-3-1c-2.075-2.92-3-4.375-3-8h-2l-.375-1.937L22 188l-2-1c-3-5.308-3-5.308-3-9h-2c-1.888-4.29-3.573-8.53-5-13l-1.062-3.125A82 82 0 0 1 7 155l-.465-1.852C4.95 146.782 3.736 140.521 3 134l-.625-3.875C2 127 2 127 3 125c0-1.888-.003-3.776-.023-5.664.069-6.891 1.164-13.584 2.62-20.305.468-2.013.468-2.013.403-4.031h2v-7h2l-.125-2.875C10 82 10 82 12 80v-3h2v-4h2l.25-2c.998-3.99 2.822-7.385 4.75-11h2l.938-2.375C25 55 25 55 26 53h2v-3l2-2a275 275 0 0 0 2.688-3.687C35.745 40.203 39.036 36.27 43 33h2a349 349 0 0 0 4-5c3-2 3-2 6-2l1-3a88 88 0 0 1 5-3l2.063-1.687C65 17 65 17 69 17v-2c3.75-2 3.75-2 6-2l2-2 2 1v-2l3.625-.812c2.773-.68 4.756-1.39 7.313-2.75 3.449-1.62 6.22-1.886 9.972-2.192 2.21-.168 2.21-.168 4.59-1.246C111.414.234 119.609.844 126.938.875M131 53l2 1-.625 1.688c-.502 3.095.257 4.494 1.625 7.312 2.079 2.726 2.079 2.726 4.5 5.313l2.406 2.675c1.85 2.243 1.85 2.243 4.094 2.012l1 2a98 98 0 0 0 5 3l3.375 2a61 61 0 0 0 7.313 3.563c2.883 1.25 4.845 2.565 7.312 4.437l1.875.438c3.16.836 5.441 2.72 8.125 4.562 4.213 2.877 4.213 2.877 9 4v2h3l1 2h2c-2.022-6.452-4.222-12.334-8-18h-2l-.812-1.687L182 79l-1.375-2.687c-1.407-2.467-1.407-2.467-3.812-3.126L175 73v-2c-3.878-3.934-3.878-3.934-9-5v-2c-2.607-2.327-4.667-3.192-8-4l-2.062-1.437c-3.679-1.957-7.125-2.432-11.22-3.036C141.95 54.99 139.61 54.048 137 53c-3.209-.168-3.209-.168-6 0M65 87l-1 6h-2c-1.894 3.247-2.65 6.502-3.496 10.121C58 105 58 105 56.938 107.063c-1.389 2.869-1.576 5.796-1.938 8.937h2l-.254 1.688c-.717 5.37-.62 9.966.254 15.312h-2l.621 2.23.816 2.958.81 2.917A117 117 0 0 1 59 149h2l-1 3a119 119 0 0 0 4 7c.68 1.326 1.355 2.656 2 4h2l.125 2.188c1.025 3.295 2.553 4.435 5.25 6.484 2.607 2.13 4.525 4.703 6.625 7.328 1.817 2.044 1.817 2.044 3.875 2.875C86 183 86 183 87.875 185.063c2.65 2.416 4.612 2.618 8.125 2.937v2l1.688.55c.763.252 1.526.504 2.312.762l2.516.817c2.484.871 2.484.871 4.406 1.773 8.074 3.744 16.966 1.98 25.078-.902 1.66-.361 3.326-.705 5-1v-2l3 1c2.167-.875 2.167-.875 4-2v-2h4l2-3 1.813-.75c3.353-1.916 5.299-4.923 7.187-8.25l.457-2.164L160 171l3-1v-5h2c2.18-8.175 4.015-17.346.438-25.375-2.022-3.467-4.626-5.851-7.77-8.305C156 130 156 130 153.812 127.625c-1.903-2.07-1.903-2.07-5.812-1.625v-2a873 873 0 0 0-6.25-3l-3.516-1.687c-3.27-1.564-3.27-1.564-7.234-1.313v-2l-3.375-.937C124 114 124 114 122 113l-2 1-1-2q-2.495-.524-5-1l-3-2-2 1-1-2c-2.549-.616-2.549-.616-5.5-1-3.031-.437-3.031-.437-5.5-1l-1-2-2.375-.437C90.61 102.916 90.11 102.11 88 100c-2.975-1.158-2.975-1.158-6-2-3.47-1.157-4.465-2.395-7-5a195 195 0 0 0-3.562-3.25c-.58-.52-1.158-1.042-1.754-1.578C67.932 86.714 67.932 86.714 65 87m-10 32 1 3Zm0 10 1 3Zm70 118v1h5v-1z"/><path fill="#E88A4C" d="m160 8 1 2-2.055.559c-10.475 3.264-18.055 9.78-23.761 19.14C130.915 37.996 130.61 45.784 131 55l2-1-.062 3.375C133.68 63.682 138.478 67.911 143 72c2.157 1.272 2.157 1.272 4 2v2l3.188.75c3.651 1.023 5.903 2.813 8.812 5.25q1.995.514 4 1l6 4q1.99.544 4 1c4.778 2.556 4.778 2.556 6 5 1.902.6 1.902.6 4 1l3 1v2h2v2l2.375.375C193 100 193 100 195 102v3h2c6.373 9.56 3.325 26.187 1.342 36.967-1.1 5.464-2.588 10.2-5.342 15.033l-1.414 2.512c-2.928 5.022-6.001 9.908-9.586 14.488h-2l-.633 1.707c-1.88 3.154-4.3 4.804-7.242 6.98l-3.18 2.387c-2.487 1.626-4.056 2.514-6.945 2.926v2c-12.342 5.076-22.86 8.178-36.312 8.188l-2.745.037-2.619.005-2.372.013C116 198 116 198 114 196l3.508-.55 4.617-.762 2.305-.358c4.7-.79 8.327-2.06 12.57-4.33 3.875-.687 3.875-.687 7-1v-2c1.638-1.046 3.31-2.04 5-3 4.978-3.267 8.434-7.67 11-13l2-1c.656-2.527.656-2.527 1-5h2c1.93-13.976 1.93-13.976-2-27v-2l-3-1v-2l-1.812-.812c-2.928-1.59-4.697-3.207-6.188-6.188h-4v-2h-4v-2l-2.25-.375c-2.578-.586-4.422-1.423-6.75-2.625a69 69 0 0 0-4-1v-2l-3.062-.375c-6.242-.99-11.312-2.812-16.938-5.625h-3v-2l-3.375-.25c-5.24-.63-9.827-2.636-14.625-4.75v-2l-2.625-.312C83.833 99.966 81.157 98.728 78 97v-2l-2.187-.687C72.468 92.752 70.559 90.627 68 88l-3-1-1 6h-2v5h-1c-1.948 5.611-3.754 11.187-5 17l1 1c.073 2.863.092 5.7.063 8.563l-.014 2.443q-.02 2.997-.049 5.994h-2c.344 2.473.344 2.473 1 5l2 1c.527 1.82.527 1.82.938 4.125 1.038 5.145 2.839 9.428 5.187 14.125C65 159 65 159 66 162l1.563 1.563L69 165v2l3 2v2c.602.26 1.204.52 1.824.79 2.333 1.297 3.39 2.475 4.989 4.585 2.996 3.677 6.023 5.42 10.187 7.625l1 2c1.979.727 3.98 1.398 6 2v2l2.25-.125c2.838.129 4.338.696 6.75 2.125v3l4 1c-6.805.3-12.875-.813-19.5-2.312l-3.012-.647C80.773 191.776 75.421 190.191 70 188q-1.891-.704-3.79-1.395A940 940 0 0 1 54 182l-3.48-1.336c-13.361-5.42-25.829-12.875-37.645-21.101l-1.775-1.214c-3.878-2.792-3.878-2.792-4.905-5.369L6 151l-.5-2.078C4.355 143.95 3.572 139.069 3 134l-.625-3.875C2 127 2 127 3 125c0-1.888-.003-3.776-.023-5.664.069-6.891 1.164-13.584 2.62-20.305.468-2.013.468-2.013.403-4.031h2v-7h2l-.125-2.875C10 82 10 82 12 80v-3h2v-4h2l.25-2c.998-3.99 2.822-7.385 4.75-11h2l.938-2.375C25 55 25 55 26 53h2v-3l2-2a275 275 0 0 0 2.688-3.687C35.745 40.203 39.036 36.27 43 33h2a349 349 0 0 0 4-5c3-2 3-2 6-2l1-3a88 88 0 0 1 5-3l2.063-1.687C65 17 65 17 69 17v-2c3.75-2 3.75-2 6-2l2-2 2 1v-2l3.813-.875C85.853 8.427 87.307 7.795 90 6h3v2l1.992-.586C115.814 1.714 139.444.558 160 8M55 119l1 3Zm0 10 1 3Z"/><path fill="#ECB549" d="m126.938.875 2.802-.012C142.823.882 142.823.882 148 2l1 2 3.75-.062c5.635.03 8.542 1.228 13.457 4.152 2.507 1.272 5.028 1.498 7.793 1.91 2.031.934 4.035 1.932 6 3l2.063 1c2.379 1.228 4.642 2.623 6.937 4 1.326.681 2.657 1.353 4 2v2l2.375.375C198 23 198 23 200 25c2.283 1.768 4.595 3.397 7 5v2l2.438.813L212 34l1 3 2 .875L217 39l1 5c1.9 1.242 1.9 1.242 4 2 2.222 2.222 2.926 4.085 4 7h2v3h2l1.313 2.688c1.598 3.259 1.598 3.259 3.375 6C236 67 236 67 236 70h2a101 101 0 0 1 3 6l-1 2 2 1c2.228 4.467 3.253 9.092 4 14 .941 3.802.941 3.802 3 7v5l.501 2.124c.678 3.91.57 7.69.483 11.65l-.05 2.55q-.056 2.667-.121 5.331c-.063 2.704-.104 5.407-.145 8.11l-.121 5.196-.029 2.428c-.158 5.258-1.267 8.865-3.518 13.611-.168 2.667-.168 2.667 0 5-1 3-1 3-2 5h-2l.688 1.688c.442 3.272-.786 4.705-2.688 7.312l-2 1c-.8 1.981-.8 1.981-1.437 4.313-1.09 3.462-2.18 5.907-4.563 8.687-1.71 2.697-2.987 4.962-4 8h-2v3h-3l-.312 1.938L222 204l-3 1a88 88 0 0 0-2 4c-1.937 2.75-1.937 2.75-4 5h-3l-.312 1.938L209 218l-3 1a101 101 0 0 0-3 3c-2.923 2.548-5.107 4.423-9 5v2c-3.711 3.08-7.745 5.127-12.437 6.188L178 236l-1 2h-4v-2c1.543-1.042 3.138-2.006 4.75-2.937 19.92-12.419 31.363-31.49 37.523-53.747 4.556-20.794 1.448-42.83-9.273-61.316-2.203-3.184-4.68-6.09-7.277-8.96C197 107 197 107 197 105h-2l-.734-1.871c-1.731-4.374-3.485-8.739-5.328-13.067l-.91-2.152c-1.105-2.054-2.326-3.33-4.028-4.91-2.309-2.716-3.867-4.602-5-8-2-1.209-2-1.209-4-2v-2l-1.687-.812c-2.525-1.297-4.95-2.613-7.313-4.188v-2l-2.562-.75c-2.66-.967-4.577-1.866-6.938-3.312-3.157-1.874-5.818-2.546-9.5-2.938l-3.375-.562L141 56v-2h-9l-1 2c-1.812-1.812-1.216-4.495-1.25-6.937.155-12.874 4.959-21.478 13.563-30.876 4.692-4.5 10.572-7.149 16.687-9.187-22.585-6.868-44-4.97-67-1V5l1.793-.148c4.961-.446 4.961-.446 9.707-1.852C111.414.234 119.609.844 126.938.875"/><path fill="#E52741" d="m81 9 1 2 3 1-2.012 1.758-2.675 2.367-2.637 2.32C66.824 28.806 61.23 41.754 60.562 56.563c.064 6.461 1.483 11.913 3.659 17.931C65.653 78.49 66.26 81.757 66 86l2 1h-3l-1 6h-2v5h-1c-1.948 5.611-3.754 11.187-5 17l1 1c.073 2.863.092 5.7.063 8.563l-.014 2.443q-.02 2.997-.049 5.994h-2c.344 2.473.344 2.473 1 5l2 1c.527 1.82.527 1.82.938 4.125 1.038 5.145 2.839 9.428 5.187 14.125C65 159 65 159 66 162l1.563 1.563L69 165v2l3 2v2c.602.26 1.204.52 1.824.79 2.333 1.297 3.39 2.475 4.989 4.585 2.996 3.677 6.023 5.42 10.187 7.625l1 2c1.979.727 3.98 1.398 6 2v2l2.25-.125c2.838.129 4.338.696 6.75 2.125v3l4 1c-6.805.3-12.875-.813-19.5-2.312l-3.012-.647C80.773 191.776 75.421 190.191 70 188q-1.891-.704-3.79-1.395A940 940 0 0 1 54 182l-3.48-1.336c-13.361-5.42-25.829-12.875-37.645-21.101l-1.775-1.214c-3.878-2.792-3.878-2.792-4.905-5.369L6 151l-.5-2.078C4.355 143.95 3.572 139.069 3 134l-.625-3.875C2 127 2 127 3 125c0-1.888-.003-3.776-.023-5.664.069-6.891 1.164-13.584 2.62-20.305.468-2.013.468-2.013.403-4.031h2v-7h2l-.125-2.875C10 82 10 82 12 80v-3h2v-4h2l.25-2c.998-3.99 2.822-7.385 4.75-11h2l.938-2.375C25 55 25 55 26 53h2v-3l2-2a275 275 0 0 0 2.688-3.687C35.745 40.203 39.036 36.27 43 33h2a349 349 0 0 0 4-5c3-2 3-2 6-2l1-3a88 88 0 0 1 5-3l2.063-1.687C65 17 65 17 69 17v-2c3.75-2 3.75-2 6-2l2-2 2 1v-2zM55 119l1 3Zm0 10 1 3Z"/><path fill="#F5DA5A" d="m126.938.875 2.802-.012C142.823.882 142.823.882 148 2l1 2 3.75-.062c4.655.008 7.313.437 11.25 3.062v2c-4.654-.614-9.173-1.464-13.75-2.5C130.876 2.523 112.334 4.652 93 8V5l1.793-.148c4.961-.446 4.961-.446 9.707-1.852C111.414.234 119.609.844 126.938.875"/><path fill="#EF4556" d="m160 171 3 1c-2.846 6.938-7.984 13.98-15 17l-1.953 1.023c-2.226 1.062-4.452 1.843-6.797 2.602-.8.26-1.598.52-2.422.79L135 194v2l6-1v2c-5.019 1.315-10.038 1.184-15.187 1.188l-2.772.037-2.646.005-2.411.013C116 198 116 198 114 196c1.158-.182 2.315-.364 3.508-.55l4.617-.762 2.305-.358c4.7-.79 8.327-2.06 12.57-4.33 3.875-.687 3.875-.687 7-1v-2c1.638-1.046 3.31-2.04 5-3 4.856-3.187 8.728-7.63 11-13"/><path fill="#F1434C" d="M4 114h2l.168 3.102q.311 5.733.632 11.467l.27 4.95q.194 3.57.395 7.141l.117 2.21c.252 4.427.732 8.75 1.418 13.13l-3-1-.375-3.187c-.474-3.804-1.039-7.588-1.625-11.375l-.52-3.368a551 551 0 0 0-.867-5.39c-.72-4.467-.72-4.467.387-6.68 0-2.01-.002-4.019-.062-6.027C3 117 3 117 4 114"/><path fill="#EC5662" d="M49 28h3v2h-2l-.817 1.798c-1.913 3.561-4.773 6.12-7.62 8.952l-1.776 1.824-1.72 1.723-1.565 1.573C35 47 35 47 32 47l-.437 1.875C31 51 31 51 30 53h-2c0-3 0-3 2-5a275 275 0 0 0 2.688-3.687C35.745 40.203 39.036 36.27 43 33h2l1.938-2.5z"/><path fill="#F6C267" d="M149 2v2l3.75-.062c4.655.008 7.313.437 11.25 3.062v2c-4.766-.634-9.426-1.485-14.125-2.5C142.928 5.08 136.088 4.347 129 4V3a144 144 0 0 1 20-1"/><path fill="#EC304B" d="m160 171 3 1c-2.838 6.919-7.985 14.012-15 17l-2 1v-2l-2-1 2.25-1.312c5.996-3.68 10.94-8.045 13.75-14.688"/><path fill="#F3494C" d="m55 111 .438 1.938c.372 2.037.372 2.037 1.562 3.062.073 2.863.092 5.7.063 8.563l-.014 2.443q-.02 2.997-.049 5.994h-2l-1 2c-1.414-8.487-1.156-15.683 1-24m0 8 1 3Zm0 10 1 3Z"/><path fill="#F25F5D" d="m55 135 1 3 2 1c.527 1.82.527 1.82.938 4.125 1.16 5.75 3.357 10.672 6.062 15.875l-2 2c-8.826-16.707-8.826-16.707-8-26"/><path fill="#E95C53" d="m131 194-1 2 6 1v1c-3.292.058-6.583.094-9.875.125l-2.84.05-2.715.02-2.507.032C116 198 116 198 114 196q2.843-.506 5.688-1l3.199-.562A47 47 0 0 1 131 194"/><path fill="#F09A6B" d="M154 244c-6.863 3.843-13.252 4.277-20.937 4.125l-2.65-.027A909 909 0 0 1 124 248v-2q5.53-.506 11.063-1c1.038-.095 2.076-.19 3.146-.29 5.287-.469 10.483-.83 15.791-.71"/><path fill="#F27265" d="M4 133h2l.402 3.254.8 6.443A638 638 0 0 0 9 156l-3-1c-2-15.429-2-15.429-2-22"/><path fill="#EA4152" d="m167 143 2 1v2l2 1c-1 7.429-1 7.429-2 11h-1a999 999 0 0 1-1.062-6.375l-.598-3.586C166 145 166 145 167 143"/><path fill="#F6CE78" d="M189 88h2c5.556 11.522 5.556 11.522 6 17h-2l-.805-2.047-1.07-2.703-1.055-2.672c-1.007-2.54-1.007-2.54-2.203-4.719C189 91 189 91 189 88"/><path fill="#F5BC62" d="M172 238c-1 2-1 2-2 3-1.666.04-3.334.043-5 0l-1 3h-6l1-3c2.18-.95 2.18-.95 4.875-1.687l2.68-.762C169 238 169 238 172 238"/><path fill="#F2895C" d="M107 245c5.152-.09 9.92.153 15 1l-1 2-3-1-1 2v-2l-6 2z"/><path fill="#F87649" d="M84 99c5.455.568 9.91 1.946 15 4v3l-9-3v-2l-6-1z"/><path fill="#F5CC73" d="M137 53c6.21-.333 10.283.55 16 3-1.562 1.125-1.562 1.125-4 2-3.687-.75-3.687-.75-7-2l-1-2c-2.025-.652-2.025-.652-4-1"/><path fill="#ED5B6B" d="m160 171 3 1c-1.937 4.588-3.489 6.805-8 9z"/><path fill="#F4C071" d="m184 234-2.937.875c-3.17.767-3.17.767-4.063 3.125h-4v-2q1.9-.796 3.813-1.562l2.144-.88C181 233 181 233 184 234"/><path fill="#F64C45" d="m43 33 2 2-5 6-4-1z"/><path fill="#E52443" d="M131 194h4v2l6-1v2h-12z"/><path fill="#EECE62" d="M144 2v2c-5.227 1.206-9.765.756-15 0V3q2.343-.254 4.688-.5l2.636-.281c2.573-.21 5.096-.256 7.676-.219"/><path fill="#F7C57E" d="M131 57c3.37 2.246 3.253 2.372 4 6a88 88 0 0 0 2 4h-2c-2.54-2.614-3.923-4.129-4.25-7.812z"/><path fill="#F46D65" d="M77 13c-1.416 2.833-3.145 3.017-6.062 4.125l-2.786 1.07L66 19l-1-2h4v-2c3.228-2.152 4.284-2.2 8-2"/><path fill="#F06068" d="M95 189c1.316.255 2.628.53 3.938.813l2.214.457L103 191l1 3c-3.344-.557-6.033-1.352-9-3z"/><path fill="#F3725C" d="m55 135 1 3 2 1v5h-2c-1.478-2.957-1.06-5.742-1-9"/><path fill="#F38774" d="M158 82c4.314.48 6.166 1.746 9 5-3.344-.557-6.033-1.352-9-3z"/><path fill="#F2575C" d="M49 28h3v2h-2v2l-5 2c2.875-4.875 2.875-4.875 4-6"/><path fill="#F26C66" d="M62 19h2v2c-1.46 1.29-1.46 1.29-3.375 2.625l-1.898 1.352C57 26 57 26 55 26c1.252-3.756 2.63-4.147 6-6z"/><path fill="#F1A446" d="M184 230v2l3 1c-3.196 1.065-5.657 1.074-9 1 3.75-4 3.75-4 6-4"/><path fill="#F6D27C" d="M194 227v2a101 101 0 0 1-6 3l-2-1c4.625-4 4.625-4 8-4"/><path fill="#F9D971" d="M246 97h2l1 8-3-1z"/><path fill="#FF6D22" d="M113 194h6v1h-6z"/><path fill="red" d="m123 193 3 1ZM110 193l2 1Z"/><path fill="#FFD040" d="m96 4 2 1Z"/><path fill="#FFE200" d="m153 3 2 1ZM99 3l2 1Z"/></svg>